<svg xmlns="http://www.w3.org/2000/svg" viewBox="0 0 48 30" role="img" aria-label="ACH Bank Transfer">
  <rect width="48" height="30" rx="3" fill="#1B4332"/>
  <path fill="#fff" d="M8 21V9h3.2l3.4 7.2L18 9h3.1v12h-2.1v-6.8L15.1 21h-2.1l-3.9-6.8V21H8Zm14.2-6.1c0-2.1 1.4-3.4 3.6-3.4 1.1 0 2 .3 2.6.9l-1.1 1.4c-.5-.4-1-.6-1.6-.6-.9 0-1.5.6-1.5 1.7v.1c0 1 .6 1.7 1.5 1.7.6 0 1.1-.2 1.6-.6l1.1 1.4c-.6.6-1.5.9-2.7.9-2.1 0-3.5-1.3-3.5-3.5Zm8.1 0c0-2.1 1.4-3.4 3.5-3.4s3.5 1.3 3.5 3.4-1.4 3.5-3.5 3.5-3.5-1.4-3.5-3.5Zm5.2 0c0-1-.6-1.7-1.7-1.7s-1.7.7-1.7 1.7.6 1.7 1.7 1.7 1.7-.7 1.7-1.7Z"/>
</svg>
